<?xml version="1.0" standalone="no"?>
<!DOCTYPE svg PUBLIC "-//W3C//DTD SVG 20010904//EN"
 "http://www.w3.org/TR/2001/REC-SVG-20010904/DTD/svg10.dtd">
<svg version="1.0" xmlns="http://www.w3.org/2000/svg"
 width="740.000000pt" height="740.000000pt" viewBox="0 0 740.000000 740.000000"
 preserveAspectRatio="xMidYMid meet">

<g transform="translate(0.000000,740.000000) scale(0.100000,-0.100000)"
fill="#000000" stroke="none">
<path d="M0 3700 l0 -3700 3700 0 3700 0 0 3700 0 3700 -3700 0 -3700 0 0
-3700z m3978 2189 l93 -43 -3 -482 c-2 -265 -6 -486 -10 -490 -4 -3 -60 19
-125 50 l-118 56 -3 468 c-1 257 0 477 3 490 6 25 -3 28 163 -49z m347 -305
l102 -45 6 -196 c9 -251 9 -653 1 -653 -4 0 -56 23 -115 52 l-109 51 0 419 c0
230 3 418 6 418 4 0 53 -21 109 -46z m493 -1316 l2 -948 -105 0 -105 0 0 1000
0 1001 103 -53 102 -53 3 -947z m-1148 -108 l0 -840 -114 0 -114 0 -6 223 c-4
122 -8 466 -9 764 l-2 542 30 31 c37 39 81 67 154 96 31 13 57 24 59 24 1 0 2
-378 2 -840z m-400 -160 l0 -680 -120 0 -120 0 0 620 0 620 118 59 c64 33 118
60 120 60 1 1 2 -305 2 -679z m1006 355 c9 -66 1 -292 -12 -305 -10 -10 -141
10 -256 41 l-38 10 0 209 0 208 150 -60 149 -60 7 -43z m-1419 -52 c17 -25 18
-67 21 -500 l3 -473 -43 0 c-24 0 -80 -3 -126 -7 l-82 -6 2 464 3 464 84 43
c46 23 92 42 102 42 10 0 27 -12 36 -27z m-630 -1393 c124 -10 159 -23 197
-72 68 -91 59 -217 -23 -310 -17 -20 -31 -44 -31 -55 0 -10 23 -49 50 -87 28
-38 50 -75 50 -82 0 -22 -45 -27 -79 -9 -17 8 -51 43 -75 76 -57 78 -75 90
-145 96 -80 8 -101 -13 -101 -96 0 -62 -15 -91 -48 -91 -47 1 -47 1 -50 332
l-3 314 73 -3 c40 -2 124 -8 185 -13z m745 0 c133 -10 167 -23 203 -78 58 -88
52 -210 -16 -288 -56 -64 -55 -75 7 -158 52 -68 55 -99 11 -104 -22 -3 -37 6
-70 40 -23 24 -55 61 -71 82 -34 45 -78 66 -140 66 -60 0 -76 -18 -76 -83 0
-66 -18 -101 -52 -105 -49 -6 -52 15 -56 343 l-4 301 73 -3 c41 -2 127 -8 191
-13z m-1892 1 c19 -5 26 -15 28 -37 4 -45 -16 -56 -117 -62 l-89 -5 -4 -247
c-3 -264 -6 -280 -54 -280 -43 0 -48 28 -52 288 l-4 242 -52 0 c-28 0 -68 5
-88 11 -35 9 -38 13 -38 45 0 27 5 37 23 44 26 10 410 11 447 1z m614 -1 c21
-8 26 -16 26 -44 0 -23 -6 -36 -17 -41 -10 -4 -87 -10 -170 -13 l-153 -5 0
-78 0 -79 148 0 c155 0 172 -4 172 -45 -1 -47 -10 -50 -170 -53 l-150 -3 0
-79 0 -78 168 -4 c92 -3 175 -8 185 -12 22 -10 23 -59 0 -77 -12 -11 -69 -15
-240 -17 l-223 -3 0 320 0 321 199 0 c110 0 211 -4 225 -10z m2070 -17 c14
-15 49 -81 77 -148 28 -66 85 -195 125 -287 41 -92 74 -170 74 -173 0 -3 -20
-5 -45 -5 -51 0 -95 32 -95 70 0 11 -9 29 -20 40 -18 18 -33 20 -170 20 -147
0 -152 -1 -175 -25 -14 -13 -25 -31 -25 -39 0 -20 -57 -66 -84 -66 -49 0 -46
16 31 193 110 254 178 393 207 422 33 33 69 32 100 -2z m890 -13 c69 -33 79
-49 49 -82 -20 -22 -31 -22 -93 -2 -34 11 -75 15 -133 13 -97 -5 -141 -27
-177 -91 -83 -148 27 -338 195 -338 84 0 130 41 142 127 7 52 42 97 71 91 26
-5 38 -85 25 -165 -19 -111 -61 -136 -233 -137 -131 -1 -180 15 -243 83 -73
78 -92 122 -91 216 0 64 5 89 23 125 34 65 66 104 112 136 106 73 233 82 353
24z m631 9 c34 -41 54 -81 164 -330 117 -266 115 -260 99 -271 -37 -23 -104
13 -127 71 -19 43 -48 51 -197 51 -135 0 -135 0 -160 -27 -82 -93 -93 -103
-118 -103 -21 0 -26 5 -26 24 0 28 206 505 244 565 39 61 80 68 121 20z m865
18 c29 -15 36 -44 17 -71 -11 -15 -31 -20 -110 -24 l-97 -5 0 -236 c0 -130 -3
-246 -6 -259 -8 -30 -50 -40 -72 -18 -15 14 -17 49 -20 265 l-3 248 -80 6
c-44 3 -87 11 -95 18 -22 18 -13 61 16 76 35 18 415 18 450 0z m610 4 c19 -5
26 -15 28 -37 5 -51 -12 -56 -189 -62 l-160 -5 3 -76 3 -76 135 -2 c176 -4
180 -5 180 -48 0 -18 -6 -37 -12 -42 -7 -4 -78 -10 -158 -13 l-145 -5 -3 -77
-3 -76 175 -4 c150 -2 178 -6 193 -20 25 -26 7 -71 -32 -79 -17 -4 -121 -7
-232 -8 l-203 -1 0 320 0 320 198 -1 c108 -1 208 -4 222 -8z m-1032 -1066
c120 -28 145 -58 107 -125 -19 -33 -19 -70 1 -98 9 -13 14 -26 11 -29 -12 -11
-44 8 -60 36 -10 17 -27 33 -38 36 -24 8 -49 -10 -49 -35 0 -21 -27 -46 -38
-36 -10 11 -15 266 -5 266 4 0 36 -7 71 -15z m-5413 -8 c25 -19 6 -29 -68 -38
-32 -4 -61 -10 -64 -13 -14 -13 22 -36 56 -36 41 0 78 -21 68 -38 -4 -5 -30
-13 -58 -17 -58 -8 -74 -29 -41 -56 12 -9 40 -20 62 -24 72 -12 54 -25 -35
-25 l-87 0 4 118 c2 64 7 123 11 130 11 17 128 16 152 -1z m655 -2 c17 -9 30
-23 30 -31 0 -13 -8 -15 -44 -10 -71 11 -74 -28 -5 -60 41 -18 69 -47 69 -72
0 -7 -11 -24 -25 -37 -27 -28 -74 -32 -140 -13 l-40 11 29 8 c15 4 52 11 82
15 30 3 54 10 54 14 0 4 -18 15 -41 25 -84 38 -117 119 -61 149 35 19 56 20
92 1z m1248 1 c81 -42 113 -129 73 -194 -36 -57 -98 -67 -166 -27 -80 46 -94
96 -46 162 52 71 87 86 139 59z m836 8 c9 -3 16 -12 16 -19 0 -17 -23 -25 -70
-25 -48 0 -70 -8 -70 -26 0 -14 11 -17 82 -29 72 -11 59 -40 -25 -51 -26 -4
-50 -11 -53 -16 -11 -17 29 -48 83 -64 29 -8 53 -17 53 -20 0 -2 -38 -4 -85
-4 l-85 0 0 118 c0 78 4 122 12 130 12 12 114 17 142 6z m846 -4 c13 -9 12
-12 -4 -25 -11 -8 -34 -15 -52 -15 -18 0 -39 -3 -48 -6 -25 -9 -19 -33 9 -39
14 -3 37 -7 51 -10 41 -9 26 -38 -26 -51 -33 -8 -46 -16 -48 -31 -4 -25 31
-53 65 -53 12 0 25 -4 28 -10 4 -6 -22 -10 -70 -10 l-77 0 4 120 c2 94 6 123
18 130 20 13 131 12 150 0z m303 -39 c31 -56 77 -174 77 -197 0 -11 -7 -10
-31 8 -23 17 -44 23 -84 23 -40 0 -61 -6 -84 -23 -39 -29 -40 -16 -6 74 32 86
75 164 90 164 7 0 24 -22 38 -49z m365 33 c34 -24 27 -33 -30 -36 -65 -4 -77
-28 -27 -56 81 -44 110 -92 75 -121 -37 -31 -147 -20 -160 16 -10 25 0 27 38
9 41 -19 58 -20 74 -4 20 20 14 38 -15 48 -51 19 -70 31 -85 58 -20 34 -15 47
30 77 42 29 69 31 100 9z m237 -65 l18 -40 50 48 c58 57 58 46 -5 -87 l-41
-85 -8 38 c-5 22 -25 67 -44 101 -19 35 -35 73 -35 86 l0 23 24 -22 c13 -12
32 -40 41 -62z m610 62 c86 -39 115 -108 73 -171 -31 -46 -80 -70 -146 -70
-47 0 -53 3 -62 26 -6 14 -10 61 -10 104 0 112 9 130 62 130 24 0 61 -9 83
-19z m755 4 c10 -12 8 -16 -15 -25 -14 -5 -38 -10 -51 -10 -14 0 -34 -5 -45
-11 -16 -8 -18 -13 -8 -25 6 -8 23 -14 38 -14 31 0 74 -21 73 -35 0 -5 -24
-15 -53 -20 -29 -6 -54 -16 -56 -22 -6 -17 25 -42 70 -54 74 -21 64 -29 -37
-29 l-99 0 5 115 c3 70 10 121 18 130 17 21 142 21 160 0z m615 -60 c26 -41
50 -75 54 -75 3 0 21 26 39 59 39 72 56 88 76 72 31 -26 28 -203 -3 -234 -16
-16 -22 -4 -28 63 l-6 61 -29 -51 c-19 -34 -35 -50 -45 -48 -9 2 -33 34 -54
72 l-37 68 -13 -73 -14 -74 -6 55 c-7 66 0 180 12 180 4 0 29 -34 54 -75z
m-6172 28 c47 -74 93 -213 71 -213 -3 0 -13 9 -23 21 -11 14 -33 23 -63 26
-61 7 -94 -2 -101 -27 -7 -26 -27 -26 -27 0 0 51 85 230 110 230 5 0 20 -17
33 -37z m591 -13 c26 -27 48 -50 49 -50 2 0 20 23 41 50 21 28 41 48 44 46 6
-7 -66 -206 -83 -230 -20 -26 -35 -11 -35 34 0 26 -13 64 -40 115 -22 42 -40
78 -40 80 0 15 23 -1 64 -45z m510 33 c2 -10 7 -33 11 -51 4 -18 15 -37 25
-42 48 -26 110 2 110 49 0 16 7 34 15 41 23 19 37 -32 33 -127 -3 -85 -19
-123 -38 -93 -5 8 -10 27 -10 41 0 38 -21 51 -77 47 -48 -3 -48 -3 -59 -47
-22 -91 -48 -51 -49 74 0 75 10 125 25 125 5 0 11 -8 14 -17z m826 -50 c25
-38 50 -68 55 -67 6 0 26 27 46 59 40 67 65 88 78 66 24 -38 23 -222 -1 -237
-16 -10 -28 17 -28 66 0 25 -3 56 -7 68 -5 21 -10 17 -42 -39 -20 -34 -41 -64
-48 -66 -6 -2 -29 28 -51 67 l-39 71 -5 -76 c-5 -72 -19 -108 -35 -91 -10 10
-17 189 -9 221 11 43 38 29 86 -42z m860 52 c0 -9 -16 -47 -35 -85 -19 -38
-35 -78 -35 -89 0 -30 -16 -34 -32 -8 -17 26 -68 151 -68 166 0 24 16 9 43
-39 16 -28 30 -50 32 -50 3 0 14 19 26 43 34 67 69 99 69 62z m3778 -36 l47
-50 43 52 c23 28 42 47 42 42 0 -16 -56 -177 -74 -211 -27 -53 -37 -43 -50 50
-2 21 -21 64 -40 96 -20 31 -36 61 -36 65 0 18 24 3 68 -44z m-715 23 c19 -21
83 -157 91 -194 8 -35 -7 -36 -46 -3 -22 19 -41 25 -74 25 -35 0 -51 -6 -70
-25 -31 -31 -34 -31 -34 3 0 29 61 165 87 195 20 21 26 21 46 -1z m-2873 -212
c0 -11 -40 -34 -47 -26 -3 3 -3 12 0 21 7 16 47 21 47 5z"/>
<path d="M2070 2701 l0 -121 99 0 c54 0 112 5 130 11 76 27 89 181 17 209 -12
4 -73 11 -134 15 l-112 8 0 -122z"/>
<path d="M2820 2701 l0 -123 115 4 c108 3 116 4 141 29 18 18 28 41 31 72 12
103 -12 121 -180 133 l-107 7 0 -122z"/>
<path d="M3672 2723 c-37 -82 -72 -170 -72 -183 0 -6 46 -10 110 -10 61 0 110
2 110 4 0 9 -102 242 -109 249 -4 4 -22 -23 -39 -60z"/>
<path d="M5196 2712 c-27 -54 -76 -171 -76 -184 0 -4 52 -8 115 -8 63 0 115 2
115 5 0 11 -79 187 -94 210 -9 14 -21 25 -26 25 -5 0 -20 -21 -34 -48z"/>
<path d="M5712 1788 c-17 -17 -15 -63 3 -78 35 -29 99 30 81 75 -7 18 -67 20
-84 3z"/>
<path d="M2122 1784 c-62 -43 13 -173 87 -149 24 7 71 61 71 81 0 61 -104 106
-158 68z"/>
<path d="M4152 1748 c-16 -16 -15 -45 2 -51 21 -8 49 16 44 39 -4 23 -29 29
-46 12z"/>
<path d="M5338 1794 c-5 -4 -8 -43 -8 -86 0 -89 9 -100 58 -74 60 31 83 104
43 140 -21 19 -82 32 -93 20z"/>
<path d="M555 1751 c-8 -26 4 -51 25 -51 19 0 29 23 22 53 -5 23 -39 22 -47
-2z"/>
<path d="M6410 1740 c-14 -26 -5 -40 26 -40 29 0 42 24 24 45 -17 21 -37 19
-50 -5z"/>
</g>
</svg>
